<mxfile host="app.diagrams.net" agent="Mozilla/5.0 (Windows NT 10.0; Win64; x64) AppleWebKit/537.36 (KHTML, like Gecko) Chrome/135.0.0.0 Safari/537.36" version="26.2.12">
  <diagram name="페이지-1" id="E2rMtHx--qAtnGGGIbN-">
    <mxGraphModel dx="493" dy="503" grid="1" gridSize="10" guides="1" tooltips="1" connect="1" arrows="1" fold="1" page="1" pageScale="1" pageWidth="827" pageHeight="1169" math="0" shadow="0">
      <root>
        <mxCell id="0" />
        <mxCell id="1" parent="0" />
        <mxCell id="mn5tEmvZcyQwOSqIYeW--6" value="1. 회원가입 버튼 클릭" style="html=1;verticalAlign=bottom;endArrow=block;edgeStyle=elbowEdgeStyle;elbow=vertical;curved=0;rounded=0;" edge="1" parent="1" source="mn5tEmvZcyQwOSqIYeW--10" target="mn5tEmvZcyQwOSqIYeW--2">
          <mxGeometry relative="1" as="geometry">
            <mxPoint x="200" y="210" as="sourcePoint" />
            <Array as="points">
              <mxPoint x="185" y="200" />
            </Array>
          </mxGeometry>
        </mxCell>
        <mxCell id="mn5tEmvZcyQwOSqIYeW--7" value="2. 회원가입 정보 입력 창 출력" style="html=1;verticalAlign=bottom;endArrow=block;dashed=1;endSize=8;edgeStyle=elbowEdgeStyle;elbow=vertical;curved=0;rounded=0;endFill=1;" edge="1" parent="1" source="mn5tEmvZcyQwOSqIYeW--2">
          <mxGeometry relative="1" as="geometry">
            <mxPoint x="100" y="230" as="targetPoint" />
            <Array as="points">
              <mxPoint x="195" y="230" />
            </Array>
            <mxPoint x="325" y="230" as="sourcePoint" />
          </mxGeometry>
        </mxCell>
        <mxCell id="mn5tEmvZcyQwOSqIYeW--8" value="사용자" style="shape=umlActor;verticalLabelPosition=bottom;verticalAlign=top;html=1;outlineConnect=0;" vertex="1" parent="1">
          <mxGeometry x="80" y="80" width="30" height="60" as="geometry" />
        </mxCell>
        <mxCell id="mn5tEmvZcyQwOSqIYeW--9" value="" style="endArrow=none;dashed=1;html=1;rounded=0;" edge="1" parent="1" source="mn5tEmvZcyQwOSqIYeW--10">
          <mxGeometry width="50" height="50" relative="1" as="geometry">
            <mxPoint x="95" y="420" as="sourcePoint" />
            <mxPoint x="95" y="160" as="targetPoint" />
          </mxGeometry>
        </mxCell>
        <mxCell id="mn5tEmvZcyQwOSqIYeW--10" value="" style="html=1;points=[];perimeter=orthogonalPerimeter;outlineConnect=0;targetShapes=umlLifeline;portConstraint=eastwest;newEdgeStyle={&quot;edgeStyle&quot;:&quot;elbowEdgeStyle&quot;,&quot;elbow&quot;:&quot;vertical&quot;,&quot;curved&quot;:0,&quot;rounded&quot;:0};" vertex="1" parent="1">
          <mxGeometry x="90" y="190" width="10" height="370" as="geometry" />
        </mxCell>
        <mxCell id="mn5tEmvZcyQwOSqIYeW--11" value="D-Day 앱 회원가입 관련&lt;div&gt;순차 다이어그램&lt;/div&gt;" style="text;html=1;align=left;verticalAlign=middle;whiteSpace=wrap;rounded=0;fontSize=24;" vertex="1" parent="1">
          <mxGeometry x="80" y="30" width="310" height="30" as="geometry" />
        </mxCell>
        <mxCell id="mn5tEmvZcyQwOSqIYeW--16" value="3. 정보 입력 후 확인 버튼 클릭" style="html=1;verticalAlign=bottom;endArrow=block;edgeStyle=elbowEdgeStyle;elbow=vertical;curved=0;rounded=0;" edge="1" parent="1" target="mn5tEmvZcyQwOSqIYeW--13">
          <mxGeometry relative="1" as="geometry">
            <mxPoint x="100" y="270" as="sourcePoint" />
            <Array as="points">
              <mxPoint x="175" y="270" />
            </Array>
            <mxPoint x="325" y="270" as="targetPoint" />
          </mxGeometry>
        </mxCell>
        <mxCell id="mn5tEmvZcyQwOSqIYeW--1" value="앱 시스템" style="shape=umlLifeline;perimeter=lifelinePerimeter;whiteSpace=wrap;html=1;container=0;dropTarget=0;collapsible=0;recursiveResize=0;outlineConnect=0;portConstraint=eastwest;newEdgeStyle={&quot;edgeStyle&quot;:&quot;elbowEdgeStyle&quot;,&quot;elbow&quot;:&quot;vertical&quot;,&quot;curved&quot;:0,&quot;rounded&quot;:0};" vertex="1" parent="1">
          <mxGeometry x="300" y="120" width="100" height="440" as="geometry" />
        </mxCell>
        <mxCell id="mn5tEmvZcyQwOSqIYeW--2" value="" style="html=1;points=[];perimeter=orthogonalPerimeter;outlineConnect=0;targetShapes=umlLifeline;portConstraint=eastwest;newEdgeStyle={&quot;edgeStyle&quot;:&quot;elbowEdgeStyle&quot;,&quot;elbow&quot;:&quot;vertical&quot;,&quot;curved&quot;:0,&quot;rounded&quot;:0};" vertex="1" parent="mn5tEmvZcyQwOSqIYeW--1">
          <mxGeometry x="45" y="80" width="10" height="40" as="geometry" />
        </mxCell>
        <mxCell id="mn5tEmvZcyQwOSqIYeW--14" value="" style="endArrow=classic;html=1;rounded=0;edgeStyle=orthogonalEdgeStyle;" edge="1" parent="mn5tEmvZcyQwOSqIYeW--1" target="mn5tEmvZcyQwOSqIYeW--15">
          <mxGeometry width="50" height="50" relative="1" as="geometry">
            <mxPoint x="55" y="165" as="sourcePoint" />
            <mxPoint x="110" y="185" as="targetPoint" />
            <Array as="points">
              <mxPoint x="80" y="165" />
              <mxPoint x="80" y="185" />
            </Array>
          </mxGeometry>
        </mxCell>
        <mxCell id="mn5tEmvZcyQwOSqIYeW--12" value="3.1 필요한 정보가&lt;div&gt;모두 입력되었는지 체크&lt;/div&gt;" style="text;html=1;align=left;verticalAlign=middle;resizable=0;points=[];autosize=1;strokeColor=none;fillColor=none;" vertex="1" parent="mn5tEmvZcyQwOSqIYeW--1">
          <mxGeometry x="60" y="130" width="140" height="40" as="geometry" />
        </mxCell>
        <mxCell id="mn5tEmvZcyQwOSqIYeW--13" value="" style="html=1;points=[];perimeter=orthogonalPerimeter;outlineConnect=0;targetShapes=umlLifeline;portConstraint=eastwest;newEdgeStyle={&quot;edgeStyle&quot;:&quot;elbowEdgeStyle&quot;,&quot;elbow&quot;:&quot;vertical&quot;,&quot;curved&quot;:0,&quot;rounded&quot;:0};" vertex="1" parent="mn5tEmvZcyQwOSqIYeW--1">
          <mxGeometry x="45" y="150" width="10" height="240" as="geometry" />
        </mxCell>
        <mxCell id="mn5tEmvZcyQwOSqIYeW--15" value="" style="html=1;points=[];perimeter=orthogonalPerimeter;outlineConnect=0;targetShapes=umlLifeline;portConstraint=eastwest;newEdgeStyle={&quot;edgeStyle&quot;:&quot;elbowEdgeStyle&quot;,&quot;elbow&quot;:&quot;vertical&quot;,&quot;curved&quot;:0,&quot;rounded&quot;:0};" vertex="1" parent="mn5tEmvZcyQwOSqIYeW--1">
          <mxGeometry x="50" y="185" width="10" height="20" as="geometry" />
        </mxCell>
        <mxCell id="mn5tEmvZcyQwOSqIYeW--17" value="5.1 정보 서버에 전송" style="html=1;verticalAlign=bottom;endArrow=block;edgeStyle=elbowEdgeStyle;elbow=horizontal;curved=0;rounded=0;" edge="1" parent="mn5tEmvZcyQwOSqIYeW--1">
          <mxGeometry relative="1" as="geometry">
            <mxPoint x="55.000000000000114" y="270" as="sourcePoint" />
            <Array as="points">
              <mxPoint x="135" y="270" />
            </Array>
            <mxPoint x="265" y="269.9999999999999" as="targetPoint" />
          </mxGeometry>
        </mxCell>
        <mxCell id="mn5tEmvZcyQwOSqIYeW--18" value="6. 회원가입 완료 창 출력&lt;div&gt;(실패시: 에러 메시지 출력)&lt;/div&gt;" style="html=1;verticalAlign=bottom;endArrow=open;dashed=1;endSize=8;edgeStyle=elbowEdgeStyle;elbow=vertical;curved=0;rounded=0;" edge="1" parent="mn5tEmvZcyQwOSqIYeW--1">
          <mxGeometry relative="1" as="geometry">
            <mxPoint x="-200" y="360" as="targetPoint" />
            <Array as="points">
              <mxPoint x="30" y="360" />
            </Array>
            <mxPoint x="45" y="360" as="sourcePoint" />
          </mxGeometry>
        </mxCell>
        <mxCell id="mn5tEmvZcyQwOSqIYeW--19" value="5.2 회원가입 완료 신호 반환&lt;div&gt;(실패시: 에러 신호 반환)&lt;/div&gt;" style="html=1;verticalAlign=bottom;endArrow=block;dashed=1;endSize=8;edgeStyle=elbowEdgeStyle;elbow=vertical;curved=0;rounded=0;endFill=1;" edge="1" parent="mn5tEmvZcyQwOSqIYeW--1" source="mn5tEmvZcyQwOSqIYeW--21">
          <mxGeometry relative="1" as="geometry">
            <mxPoint x="55.000000000000114" y="340" as="targetPoint" />
            <Array as="points">
              <mxPoint x="115" y="340" />
            </Array>
            <mxPoint x="255" y="339.9999999999999" as="sourcePoint" />
          </mxGeometry>
        </mxCell>
        <mxCell id="mn5tEmvZcyQwOSqIYeW--23" value="" style="endArrow=classic;html=1;rounded=0;edgeStyle=orthogonalEdgeStyle;" edge="1" parent="mn5tEmvZcyQwOSqIYeW--1" target="mn5tEmvZcyQwOSqIYeW--24">
          <mxGeometry width="50" height="50" relative="1" as="geometry">
            <mxPoint x="275" y="290" as="sourcePoint" />
            <mxPoint x="330" y="310" as="targetPoint" />
            <Array as="points">
              <mxPoint x="300" y="290" />
              <mxPoint x="300" y="310" />
            </Array>
          </mxGeometry>
        </mxCell>
        <mxCell id="mn5tEmvZcyQwOSqIYeW--22" value="5.1.1 서버에 계정 추가" style="text;html=1;align=left;verticalAlign=middle;resizable=0;points=[];autosize=1;strokeColor=none;fillColor=none;" vertex="1" parent="mn5tEmvZcyQwOSqIYeW--1">
          <mxGeometry x="280" y="260" width="140" height="30" as="geometry" />
        </mxCell>
        <mxCell id="mn5tEmvZcyQwOSqIYeW--20" value="서버 시스템" style="shape=umlLifeline;perimeter=lifelinePerimeter;whiteSpace=wrap;html=1;container=0;dropTarget=0;collapsible=0;recursiveResize=0;outlineConnect=0;portConstraint=eastwest;newEdgeStyle={&quot;edgeStyle&quot;:&quot;elbowEdgeStyle&quot;,&quot;elbow&quot;:&quot;vertical&quot;,&quot;curved&quot;:0,&quot;rounded&quot;:0};" vertex="1" parent="1">
          <mxGeometry x="520" y="120" width="100" height="440" as="geometry" />
        </mxCell>
        <mxCell id="mn5tEmvZcyQwOSqIYeW--21" value="" style="html=1;points=[];perimeter=orthogonalPerimeter;outlineConnect=0;targetShapes=umlLifeline;portConstraint=eastwest;newEdgeStyle={&quot;edgeStyle&quot;:&quot;elbowEdgeStyle&quot;,&quot;elbow&quot;:&quot;vertical&quot;,&quot;curved&quot;:0,&quot;rounded&quot;:0};" vertex="1" parent="mn5tEmvZcyQwOSqIYeW--20">
          <mxGeometry x="45" y="270" width="10" height="80" as="geometry" />
        </mxCell>
        <mxCell id="mn5tEmvZcyQwOSqIYeW--24" value="" style="html=1;points=[];perimeter=orthogonalPerimeter;outlineConnect=0;targetShapes=umlLifeline;portConstraint=eastwest;newEdgeStyle={&quot;edgeStyle&quot;:&quot;elbowEdgeStyle&quot;,&quot;elbow&quot;:&quot;vertical&quot;,&quot;curved&quot;:0,&quot;rounded&quot;:0};" vertex="1" parent="mn5tEmvZcyQwOSqIYeW--20">
          <mxGeometry x="50" y="310" width="10" height="20" as="geometry" />
        </mxCell>
        <mxCell id="mn5tEmvZcyQwOSqIYeW--25" value="4. 정보가 부족할 시: 정보 추가 요청 메시지 출력" style="html=1;verticalAlign=bottom;endArrow=open;dashed=1;endSize=8;edgeStyle=elbowEdgeStyle;elbow=vertical;curved=0;rounded=0;endFill=0;" edge="1" parent="1">
          <mxGeometry relative="1" as="geometry">
            <mxPoint x="100" y="340" as="targetPoint" />
            <Array as="points">
              <mxPoint x="195" y="340" />
            </Array>
            <mxPoint x="345" y="340" as="sourcePoint" />
          </mxGeometry>
        </mxCell>
        <mxCell id="mn5tEmvZcyQwOSqIYeW--26" value="5. 정보 재입력 후 확인 버튼 클릭" style="html=1;verticalAlign=bottom;endArrow=block;edgeStyle=elbowEdgeStyle;elbow=vertical;curved=0;rounded=0;" edge="1" parent="1">
          <mxGeometry relative="1" as="geometry">
            <mxPoint x="100" y="370" as="sourcePoint" />
            <Array as="points">
              <mxPoint x="175" y="370" />
            </Array>
            <mxPoint x="345" y="370" as="targetPoint" />
          </mxGeometry>
        </mxCell>
      </root>
    </mxGraphModel>
  </diagram>
</mxfile>
